<!-- <svg xmlns="http://www.w3.org/2000/svg" width="30" height="30" viewBox="0 0 300 300">
  <circle cx="150" cy="150" r="150" className="pattern-fb" fill="#1c1c1c"/>
  <path fill="#9ca3af" d="M150 30.6c-66 0-120 53.9-120 120.5 0 60 43.9 109.8 101.3 119v-83.3h-37.1v-34.6h34.6V118.1c0-29.9 17.8-46.3 45-46.3 13 0 26.7 2.3 26.7 2.3v31.1h-14.9c-14.6 0-19.2 9-19.2 18.1v21.9h32.6l-5.3 34.6h-27.4v83.3c57.4-9.2 101.3-59 101.3-119 0-66.6-54-120.5-120-120.5Z"></path>
</svg> -->


<svg xmlns="http://www.w3.org/2000/svg" width="30" height="30" viewBox="0 0 300 300">
  <circle cx="150" cy="150" r="150" className="pattern-fb" fill="#1c1c1c"/>
  <path className="pattern-fb-back" fill="#9ca3af" d="M150 30.6c-66 0-120 53.9-120 120.5 0 60 43.9 109.8 101.3 119v-83.3h-37.1v-34.6h34.6V118.1c0-29.9 17.8-46.3 45-46.3 13 0 26.7 2.3 26.7 2.3v31.1h-14.9c-14.6 0-19.2 9-19.2 18.1v21.9h32.6l-5.3 34.6h-27.4v83.3c57.4-9.2 101.3-59 101.3-119 0-66.6-54-120.5-120-120.5Z"></path>
</svg>