<!-- <svg xmlns="http://www.w3.org/2000/svg" width="30" height="30" viewBox="0 0 300 300">
  <circle cx="150" cy="150" r="150" fill="#1c1c1c"/>
  <path fill="#9ca3af" d="M195 37.5h-90C49.5 37.5 22.5 64.5 22.5 112.5v75c0 48 27 75 82.5 75h90c55.5 0 82.5-27 82.5-75v-75c0-48-27-75-82.5-75m-15 15a18.75 18.75 0 0 1 18.75 18.75A18.75 18.75 0 0 1 180 90a18.75 18.75 0 0 1-18.75-18.75A18.75 18.75 0 0 1 180 52.5M150 52.5a75 75 0 0 1 75 75a75 75 0 0 1-75 75a75 75 0 0 1-75-75a75 75 0 0 1 75-75m0 30a45 45 0 0 0-45 45a45 45 0 0 0 45 45a45 45 0 0 0 45-45a45 45 0 0 0-45-45Z"/>
</svg> -->

<svg xmlns="http://www.w3.org/2000/svg" width="30" height="30" viewBox="0 0 300 300">
  <circle cx="150" cy="150" r="150" className="pattern-fb" fill="#1c1c1c"/>
  <path fill="#9ca3af" d="M7.8 2h8.4C19.4 2 22 4.6 22 7.8v8.4a5.8 5.8 0 0 1-5.8 5.8H7.8C4.6 22 2 19.4 2 16.2V7.8A5.8 5.8 0 0 1 7.8 2m-.2 2A3.6 3.6 0 0 0 4 7.6v8.8C4 18.39 5.61 20 7.6 20h8.8a3.6 3.6 0 0 0 3.6-3.6V7.6C20 5.61 18.39 4 16.4 4H7.6m9.65 1.5a1.25 1.25 0 0 1 1.25 1.25A1.25 1.25 0 0 1 17.25 8A1.25 1.25 0 0 1 16 6.75a1.25 1.25 0 0 1 1.25-1.25M12 7a5 5 0 0 1 5 5a5 5 0 0 1-5 5a5 5 0 0 1-5-5a5 5 0 0 1 5-5m0 2a3 3 0 0 0-3 3a3 3 0 0 0 3 3a3 3 0 0 0 3-3a3 3 0 0 0-3-3Z"></path>
</svg>
