<svg xmlns="http://www.w3.org/2000/svg" width="30" height="30" viewBox="0 0 300 300">
  <circle cx="150" cy="150" r="150" fill="#1c1c1c"/>
  <path fill="#9ca3af" d="M237.5 37.5a25 25 0 0 1 25 25v175a25 25 0 0 1-25 25H62.5a25 25 0 0 1-25-25V62.5a25 25 0 0 1 25-25h175m-6.25 193.75v-66.25a40.75 40.75 0 0 0-40.75-40.75c-10.625 0-23 6.5-29 16.25v-13.875h-34.875v104.625h34.875v-61.625c0-9.625 7.75-17.5 17.375-17.5a17.5 17.5 0 0 1 17.5 17.5v61.625h34.875M82.25 107a21 21 0 0 0 21-21c0-11.625-9.375-21.125-21-21.125a21.125 21.125 0 0 0-21.125 21.125c0 11.625 9.5 21 21.125 21m17.375 123.625v-104.625H68.75v104.625h30.875Z"/>
</svg>
