<svg xmlns="http://www.w3.org/2000/svg" width="30" height="30" viewBox="0 0 300 300">
  <circle cx="150" cy="150" r="150" fill="#1c1c1c"/>
  <path fill="#9ca3af" d="m125 187.5l64.875-37.5L125 112.5v75m138.45-97.875c1.575 5.875 2.7 13.75 3.6 23.75.9 10 1.35 18.625 1.35 26.125L275 150c0 27.375-2 47.5-5.55 60.375-3.125 11.25-10.375 18.5-21.625 21.625-5.875 1.575-16.625 2.7-33.125 3.6-16.25.875-31.125 1.35-44.875 1.35L150 237.5c-52.375 0-85-2-97.875-5.55-11.25-3.125-18.5-10.375-21.625-21.625-1.575-5.875-2.7-13.75-3.6-23.75-.9-10-1.35-18.625-1.35-26.125L25 150c0-27.375 2-47.5 5.55-60.375 3.125-11.25 10.375-18.5 21.625-21.625 5.875-1.575 16.625-2.7 33.125-3.6 16.25-.875 31.125-1.35 44.875-1.35L150 62.5c52.375 0 85 2 97.875 5.55 11.25 3.125 18.5 10.375 21.625 21.625Z"/>
</svg>
